<svg width="16" height="16" viewBox="0 0 16 16" fill="none" xmlns="http://www.w3.org/2000/svg">
<path fill-rule="evenodd" clip-rule="evenodd" d="M14.4811 11.4944C14.0046 11.1108 13.4954 10.7665 12.9942 10.4148C11.9946 9.71274 11.0803 9.65816 10.3344 10.7877C9.91551 11.4218 9.32914 11.4496 8.71602 11.1714C7.02578 10.405 5.72059 9.22414 4.95606 7.50617C4.61785 6.74609 4.62231 6.06465 5.41359 5.52707C5.83254 5.24277 6.25461 4.90637 6.22086 4.28516C6.1768 3.47516 4.21012 0.768241 3.43348 0.482538C3.11211 0.364295 2.79207 0.371991 2.46512 0.481873C0.644024 1.0943 -0.110273 2.59199 0.61211 4.36535C2.76719 9.65606 6.55977 13.3393 11.7805 15.5873C12.0781 15.7153 12.4088 15.7665 12.5762 15.8124C13.7648 15.8244 15.1572 14.6792 15.5593 13.5427C15.9464 12.4494 15.1282 12.0154 14.4811 11.4944ZM8.62735 1.02496C12.444 1.61187 14.2042 3.42672 14.6902 7.27086C14.7353 7.62594 14.603 8.16023 15.1096 8.17008C15.6391 8.1802 15.5115 7.65379 15.516 7.29836C15.5607 3.67789 12.4039 0.321561 8.7377 0.197811C8.4611 0.237616 7.88875 0.00706856 7.85305 0.62703C7.82926 1.045 8.31113 0.976327 8.62735 1.02496Z" fill="white"/>
<path fill-rule="evenodd" clip-rule="evenodd" d="M9.37391 2.07898C9.0068 2.03476 8.52215 1.86179 8.43637 2.37117C8.3468 2.90582 8.88696 2.85152 9.23403 2.92922C11.5913 3.45605 12.4121 4.31402 12.8002 6.6523C12.8569 6.9932 12.7443 7.52379 13.3236 7.43586C13.7529 7.37047 13.5979 6.91566 13.6338 6.65C13.6528 4.40508 11.7291 2.36179 9.37391 2.07898Z" fill="white"/>
<path fill-rule="evenodd" clip-rule="evenodd" d="M9.59035 3.91469C9.34532 3.92074 9.10481 3.94727 9.01473 4.20914C8.87945 4.60055 9.16403 4.69387 9.45367 4.74039C10.4207 4.89562 10.9296 5.46582 11.0262 6.43012C11.0523 6.69183 11.2184 6.9039 11.4712 6.87406C11.8215 6.83226 11.8532 6.52043 11.8425 6.2243C11.8598 5.14094 10.6353 3.88875 9.59035 3.91469Z" fill="white"/>
</svg>
