<?xml version="1.0" standalone="no"?>
<!DOCTYPE svg PUBLIC "-//W3C//DTD SVG 20010904//EN"
 "http://www.w3.org/TR/2001/REC-SVG-20010904/DTD/svg10.dtd">
<svg version="1.0" xmlns="http://www.w3.org/2000/svg"
 width="1280.000000pt" height="1280.000000pt" viewBox="0 0 1280.000000 1280.000000"
 preserveAspectRatio="xMidYMid meet">
<g transform="translate(0.000000,1280.000000) scale(0.100000,-0.100000)"
fill="#000000" stroke="none">
<path d="M7185 9039 c-295 -6 -529 -17 -755 -35 -41 -3 -151 -17 -245 -30
-542 -79 -1073 -251 -1874 -606 -222 -98 -479 -208 -570 -244 -265 -105 -271
-110 -271 -206 l0 -58 -52 -26 c-29 -14 -128 -71 -220 -126 -169 -100 -216
-140 -277 -233 -14 -22 -40 -57 -57 -78 -17 -21 -48 -81 -69 -135 -21 -53 -49
-123 -62 -154 -12 -32 -23 -64 -23 -71 0 -8 -9 -22 -21 -33 -15 -14 -19 -26
-15 -48 7 -35 -8 -167 -39 -346 -33 -185 -57 -354 -61 -420 -1 -30 -14 -124
-28 -208 -20 -122 -26 -195 -28 -355 -4 -430 6 -542 78 -828 19 -74 34 -141
34 -147 0 -8 -19 -12 -51 -12 -83 0 -241 -37 -408 -96 -219 -78 -343 -134
-473 -213 -62 -37 -129 -76 -148 -86 -19 -10 -73 -43 -120 -75 -47 -31 -112
-71 -145 -88 -60 -30 -61 -30 -155 -20 -153 16 -350 5 -440 -25 -63 -21 -80
-32 -108 -67 -17 -24 -32 -52 -32 -63 0 -12 -25 -44 -60 -76 -53 -50 -60 -61
-60 -95 0 -22 11 -58 26 -87 24 -44 31 -49 73 -55 95 -15 154 -11 190 15 32
23 36 24 95 12 79 -15 576 -71 633 -71 59 0 490 56 578 75 123 27 220 64 316
121 52 31 117 67 144 81 28 14 72 42 100 62 l49 36 529 3 529 4 66 -35 c77
-40 138 -61 236 -81 84 -17 150 -9 280 36 86 29 96 30 265 30 l176 0 65 -31
c36 -17 73 -31 83 -31 17 0 19 -9 15 -110 l-3 -110 40 -5 c173 -21 473 -25
1888 -25 996 0 1871 -5 2434 -15 876 -15 1542 -11 1562 11 9 9 -15 522 -44
914 -22 297 -48 391 -134 483 -33 36 -154 121 -251 177 -290 166 -459 339
-618 630 -99 182 -216 540 -237 725 -22 200 -82 350 -195 485 -62 74 -158 242
-141 248 23 8 126 99 211 188 70 73 96 109 143 201 56 109 114 250 143 345 8
26 18 49 22 52 4 2 40 -11 79 -29 126 -58 220 -171 242 -288 10 -56 6 -76 -19
-94 -9 -6 -25 -40 -35 -75 -16 -54 -28 -73 -91 -138 l-73 -75 -10 -80 c-5 -44
-15 -123 -22 -176 -21 -170 -7 -191 176 -267 112 -47 625 -226 781 -272 38
-12 141 -43 229 -70 316 -95 739 -205 837 -216 115 -13 164 37 247 258 23 59
39 88 52 91 25 7 23 25 -10 125 -15 45 -24 85 -21 90 4 4 17 33 30 66 21 52
22 64 12 102 -7 25 -12 108 -12 187 0 320 -43 450 -202 609 -86 86 -580 404
-896 576 -521 284 -1152 520 -1622 606 -225 41 -739 81 -1235 96 -328 10 -456
10 -950 -1z m-1216 -1131 c70 -204 134 -335 214 -433 65 -80 162 -178 226
-227 l34 -26 -20 -28 c-10 -16 -36 -60 -55 -99 -20 -38 -62 -108 -92 -154 -98
-148 -156 -317 -156 -453 0 -43 -4 -86 -10 -96 -5 -9 -21 -65 -34 -124 -67
-285 -225 -600 -401 -801 -111 -126 -311 -281 -490 -382 -67 -38 -157 -129
-188 -191 -28 -57 -51 -176 -68 -356 l-12 -128 -28 0 c-15 0 -30 -3 -32 -7 -3
-5 2 -50 10 -101 8 -52 13 -95 11 -97 -2 -3 -82 -12 -177 -20 l-173 -16 -106
54 c-116 59 -340 134 -567 191 -299 74 -454 98 -629 96 -112 -2 -152 6 -227
46 -19 9 -61 20 -94 23 l-59 6 -32 195 c-18 107 -44 231 -58 275 -49 156 -55
251 -38 580 10 195 35 398 53 426 7 11 20 8 68 -18 l59 -33 15 23 c19 29 69
147 108 252 17 44 45 118 63 165 18 47 36 101 39 121 5 35 2 39 -77 112 l-83
75 4 59 c2 32 10 83 18 113 27 108 34 155 24 167 -14 16 15 80 52 119 22 23
29 38 25 52 -6 17 5 26 69 61 42 23 85 41 95 41 10 0 37 9 61 20 24 10 45 15
47 11 5 -15 -49 -316 -59 -326 -14 -14 -11 -48 11 -127 l20 -72 -25 -53 c-34
-72 -41 -109 -23 -131 8 -9 27 -48 43 -87 26 -63 46 -101 133 -253 13 -24 35
-48 49 -53 67 -25 235 1 738 117 328 75 1075 302 1240 377 142 65 138 58 115
247 -10 85 -23 175 -28 199 -8 31 -7 49 1 62 10 16 3 28 -55 86 -56 56 -71 79
-89 133 -11 36 -30 83 -41 104 -24 48 -21 92 15 169 54 119 137 174 347 231
69 19 135 35 146 35 19 1 28 -17 73 -151z m1611 121 c762 -11 1255 -8 1353 8
23 3 37 2 37 -5 0 -6 -38 -51 -86 -101 -59 -63 -98 -95 -128 -106 -40 -15
-109 -15 -952 0 -541 9 -925 20 -948 26 -58 16 -136 69 -184 126 -57 69 -55
76 16 69 31 -3 433 -11 892 -17z m-4532 -3703 c23 -8 77 -37 120 -65 43 -28
102 -62 132 -75 58 -27 73 -37 105 -75 l20 -23 -275 8 c-151 5 -292 9 -312 8
-21 0 -38 2 -38 3 0 2 10 23 22 46 12 23 27 71 33 107 l11 65 50 6 c82 10 90
10 132 -5z m607 -37 c66 -12 141 -32 166 -45 25 -12 104 -39 175 -59 71 -20
153 -42 182 -51 28 -8 52 -19 52 -24 0 -6 -85 -10 -223 -10 l-223 0 -71 44
c-70 43 -233 163 -233 171 0 5 8 4 175 -26z m-1019 -11 c-12 -63 -47 -117 -98
-154 -48 -36 -55 -38 -157 -45 -58 -5 -151 -15 -206 -24 -55 -8 -206 -22 -335
-30 -129 -8 -245 -17 -257 -20 -37 -9 -26 11 20 38 37 22 50 24 115 20 70 -6
76 -4 170 40 129 60 285 108 522 162 242 54 234 54 226 13z m-648 -438 c-57
-31 -174 -59 -283 -69 -120 -10 -471 1 -486 16 -7 7 0 17 24 32 32 20 48 21
278 22 134 1 291 5 349 9 170 11 160 12 118 -10z"/>
</g>
</svg>
