<?xml version="1.0" standalone="no"?>
<!DOCTYPE svg PUBLIC "-//W3C//DTD SVG 20010904//EN"
 "http://www.w3.org/TR/2001/REC-SVG-20010904/DTD/svg10.dtd">
<svg version="1.0" xmlns="http://www.w3.org/2000/svg"
 width="1280.000000pt" height="934.000000pt" viewBox="0 0 1280.000000 934.000000"
 preserveAspectRatio="xMidYMid meet">
<g transform="translate(0.000000,934.000000) scale(0.100000,-0.100000)"
fill="#000000" stroke="none">
<path d="M1325 9325 c-22 -8 -42 -15 -45 -15 -15 0 -1235 -1232 -1253 -1265
-33 -61 -31 -165 5 -225 16 -26 679 -697 1588 -1605 l1561 -1560 -1550 -1545
c-1105 -1101 -1556 -1557 -1571 -1587 -31 -64 -35 -121 -15 -184 16 -51 51
-88 634 -672 357 -359 633 -627 656 -640 54 -29 164 -30 218 -1 52 27 4493
4468 4520 4519 29 56 29 155 0 210 -26 50 -4496 4520 -4553 4553 -51 30 -140
38 -195 17z"/>
<path d="M8025 9325 c-22 -8 -42 -15 -45 -15 -2 0 -281 -276 -618 -612 -366
-366 -622 -629 -634 -653 -33 -62 -31 -156 5 -221 21 -37 446 -468 1588 -1610
l1560 -1559 -1552 -1550 c-989 -989 -1559 -1564 -1572 -1590 -24 -47 -27 -131
-8 -190 11 -33 127 -154 625 -653 343 -345 631 -625 656 -640 58 -35 164 -38
221 -7 20 11 1044 1026 2276 2255 l2240 2235 18 58 c21 72 15 130 -21 197 -18
34 -668 688 -2266 2281 -1232 1229 -2258 2245 -2279 2257 -50 30 -139 38 -194
17z"/>
</g>
</svg>
